<mxfile host="Electron" agent="Mozilla/5.0 (X11; Linux x86_64) AppleWebKit/537.36 (KHTML, like Gecko) draw.io/24.7.17 Chrome/128.0.6613.36 Electron/32.0.1 Safari/537.36" version="24.7.17">
  <diagram name="Page-1" id="Y3O6-fXWIPMZDo0kcvyY">
    <mxGraphModel dx="1687" dy="991" grid="1" gridSize="10" guides="1" tooltips="1" connect="1" arrows="1" fold="1" page="1" pageScale="1" pageWidth="850" pageHeight="1100" math="0" shadow="0">
      <root>
        <mxCell id="0" />
        <mxCell id="1" parent="0" />
        <mxCell id="TeqrsGrh8CQe0pCmq5D--1" value="Currency" style="swimlane;fontStyle=1;align=center;verticalAlign=top;childLayout=stackLayout;horizontal=1;startSize=26;horizontalStack=0;resizeParent=1;resizeParentMax=0;resizeLast=0;collapsible=1;marginBottom=0;whiteSpace=wrap;html=1;" parent="1" vertex="1">
          <mxGeometry x="40" y="430" width="160" height="216" as="geometry" />
        </mxCell>
        <mxCell id="TeqrsGrh8CQe0pCmq5D--2" value="Id: string" style="text;strokeColor=none;fillColor=none;align=left;verticalAlign=top;spacingLeft=4;spacingRight=4;overflow=hidden;rotatable=0;points=[[0,0.5],[1,0.5]];portConstraint=eastwest;whiteSpace=wrap;html=1;" parent="TeqrsGrh8CQe0pCmq5D--1" vertex="1">
          <mxGeometry y="26" width="160" height="26" as="geometry" />
        </mxCell>
        <mxCell id="TeqrsGrh8CQe0pCmq5D--6" value="NumCode: ushort" style="text;strokeColor=none;fillColor=none;align=left;verticalAlign=top;spacingLeft=4;spacingRight=4;overflow=hidden;rotatable=0;points=[[0,0.5],[1,0.5]];portConstraint=eastwest;whiteSpace=wrap;html=1;" parent="TeqrsGrh8CQe0pCmq5D--1" vertex="1">
          <mxGeometry y="52" width="160" height="26" as="geometry" />
        </mxCell>
        <mxCell id="TeqrsGrh8CQe0pCmq5D--5" value="CharCode: string" style="text;strokeColor=none;fillColor=none;align=left;verticalAlign=top;spacingLeft=4;spacingRight=4;overflow=hidden;rotatable=0;points=[[0,0.5],[1,0.5]];portConstraint=eastwest;whiteSpace=wrap;html=1;" parent="TeqrsGrh8CQe0pCmq5D--1" vertex="1">
          <mxGeometry y="78" width="160" height="26" as="geometry" />
        </mxCell>
        <mxCell id="TeqrsGrh8CQe0pCmq5D--9" value="Nominal: uint" style="text;strokeColor=none;fillColor=none;align=left;verticalAlign=top;spacingLeft=4;spacingRight=4;overflow=hidden;rotatable=0;points=[[0,0.5],[1,0.5]];portConstraint=eastwest;whiteSpace=wrap;html=1;" parent="TeqrsGrh8CQe0pCmq5D--1" vertex="1">
          <mxGeometry y="104" width="160" height="26" as="geometry" />
        </mxCell>
        <mxCell id="TeqrsGrh8CQe0pCmq5D--10" value="Name: string" style="text;strokeColor=none;fillColor=none;align=left;verticalAlign=top;spacingLeft=4;spacingRight=4;overflow=hidden;rotatable=0;points=[[0,0.5],[1,0.5]];portConstraint=eastwest;whiteSpace=wrap;html=1;" parent="TeqrsGrh8CQe0pCmq5D--1" vertex="1">
          <mxGeometry y="130" width="160" height="26" as="geometry" />
        </mxCell>
        <mxCell id="TeqrsGrh8CQe0pCmq5D--8" value="Value: decimal" style="text;strokeColor=none;fillColor=none;align=left;verticalAlign=top;spacingLeft=4;spacingRight=4;overflow=hidden;rotatable=0;points=[[0,0.5],[1,0.5]];portConstraint=eastwest;whiteSpace=wrap;html=1;" parent="TeqrsGrh8CQe0pCmq5D--1" vertex="1">
          <mxGeometry y="156" width="160" height="26" as="geometry" />
        </mxCell>
        <mxCell id="TeqrsGrh8CQe0pCmq5D--7" value="VunitRate: decimal" style="text;strokeColor=none;fillColor=none;align=left;verticalAlign=top;spacingLeft=4;spacingRight=4;overflow=hidden;rotatable=0;points=[[0,0.5],[1,0.5]];portConstraint=eastwest;whiteSpace=wrap;html=1;" parent="TeqrsGrh8CQe0pCmq5D--1" vertex="1">
          <mxGeometry y="182" width="160" height="26" as="geometry" />
        </mxCell>
        <mxCell id="TeqrsGrh8CQe0pCmq5D--3" value="" style="line;strokeWidth=1;fillColor=none;align=left;verticalAlign=middle;spacingTop=-1;spacingLeft=3;spacingRight=3;rotatable=0;labelPosition=right;points=[];portConstraint=eastwest;strokeColor=inherit;" parent="TeqrsGrh8CQe0pCmq5D--1" vertex="1">
          <mxGeometry y="208" width="160" height="8" as="geometry" />
        </mxCell>
        <mxCell id="TeqrsGrh8CQe0pCmq5D--11" value="Rate" style="swimlane;fontStyle=1;align=center;verticalAlign=top;childLayout=stackLayout;horizontal=1;startSize=26;horizontalStack=0;resizeParent=1;resizeParentMax=0;resizeLast=0;collapsible=1;marginBottom=0;whiteSpace=wrap;html=1;" parent="1" vertex="1">
          <mxGeometry x="220" y="320" width="250" height="138" as="geometry" />
        </mxCell>
        <mxCell id="TeqrsGrh8CQe0pCmq5D--12" value="Name: string" style="text;strokeColor=none;fillColor=none;align=left;verticalAlign=top;spacingLeft=4;spacingRight=4;overflow=hidden;rotatable=0;points=[[0,0.5],[1,0.5]];portConstraint=eastwest;whiteSpace=wrap;html=1;" parent="TeqrsGrh8CQe0pCmq5D--11" vertex="1">
          <mxGeometry y="26" width="250" height="26" as="geometry" />
        </mxCell>
        <mxCell id="TeqrsGrh8CQe0pCmq5D--18" value="Date: Date" style="text;strokeColor=none;fillColor=none;align=left;verticalAlign=top;spacingLeft=4;spacingRight=4;overflow=hidden;rotatable=0;points=[[0,0.5],[1,0.5]];portConstraint=eastwest;whiteSpace=wrap;html=1;" parent="TeqrsGrh8CQe0pCmq5D--11" vertex="1">
          <mxGeometry y="52" width="250" height="26" as="geometry" />
        </mxCell>
        <mxCell id="TeqrsGrh8CQe0pCmq5D--21" value="Currencies: Currency[]" style="text;strokeColor=none;fillColor=none;align=left;verticalAlign=top;spacingLeft=4;spacingRight=4;overflow=hidden;rotatable=0;points=[[0,0.5],[1,0.5]];portConstraint=eastwest;whiteSpace=wrap;html=1;" parent="TeqrsGrh8CQe0pCmq5D--11" vertex="1">
          <mxGeometry y="78" width="250" height="26" as="geometry" />
        </mxCell>
        <mxCell id="TeqrsGrh8CQe0pCmq5D--19" value="" style="line;strokeWidth=1;fillColor=none;align=left;verticalAlign=middle;spacingTop=-1;spacingLeft=3;spacingRight=3;rotatable=0;labelPosition=right;points=[];portConstraint=eastwest;strokeColor=inherit;" parent="TeqrsGrh8CQe0pCmq5D--11" vertex="1">
          <mxGeometry y="104" width="250" height="8" as="geometry" />
        </mxCell>
        <mxCell id="TeqrsGrh8CQe0pCmq5D--20" value="void AppendCurrency(Currency currency)" style="text;strokeColor=none;fillColor=none;align=left;verticalAlign=top;spacingLeft=4;spacingRight=4;overflow=hidden;rotatable=0;points=[[0,0.5],[1,0.5]];portConstraint=eastwest;whiteSpace=wrap;html=1;" parent="TeqrsGrh8CQe0pCmq5D--11" vertex="1">
          <mxGeometry y="112" width="250" height="26" as="geometry" />
        </mxCell>
        <mxCell id="TeqrsGrh8CQe0pCmq5D--22" style="edgeStyle=orthogonalEdgeStyle;rounded=0;orthogonalLoop=1;jettySize=auto;html=1;exitX=0;exitY=0.5;exitDx=0;exitDy=0;entryX=0.5;entryY=0;entryDx=0;entryDy=0;" parent="1" source="TeqrsGrh8CQe0pCmq5D--21" target="TeqrsGrh8CQe0pCmq5D--1" edge="1">
          <mxGeometry relative="1" as="geometry">
            <Array as="points">
              <mxPoint x="120" y="411" />
            </Array>
          </mxGeometry>
        </mxCell>
        <mxCell id="TeqrsGrh8CQe0pCmq5D--24" value="XmlParser" style="swimlane;fontStyle=1;align=center;verticalAlign=top;childLayout=stackLayout;horizontal=1;startSize=26;horizontalStack=0;resizeParent=1;resizeParentMax=0;resizeLast=0;collapsible=1;marginBottom=0;whiteSpace=wrap;html=1;" parent="1" vertex="1">
          <mxGeometry x="510" y="320" width="320" height="138" as="geometry" />
        </mxCell>
        <mxCell id="j0uwv1zFaayDVz76jR6G-3" value="_rawXml: string" style="text;strokeColor=none;fillColor=none;align=left;verticalAlign=top;spacingLeft=4;spacingRight=4;overflow=hidden;rotatable=0;points=[[0,0.5],[1,0.5]];portConstraint=eastwest;whiteSpace=wrap;html=1;" parent="TeqrsGrh8CQe0pCmq5D--24" vertex="1">
          <mxGeometry y="26" width="320" height="26" as="geometry" />
        </mxCell>
        <mxCell id="j0uwv1zFaayDVz76jR6G-4" value="_currentIndex: int" style="text;strokeColor=none;fillColor=none;align=left;verticalAlign=top;spacingLeft=4;spacingRight=4;overflow=hidden;rotatable=0;points=[[0,0.5],[1,0.5]];portConstraint=eastwest;whiteSpace=wrap;html=1;" parent="TeqrsGrh8CQe0pCmq5D--24" vertex="1">
          <mxGeometry y="52" width="320" height="26" as="geometry" />
        </mxCell>
        <mxCell id="TeqrsGrh8CQe0pCmq5D--26" value="" style="line;strokeWidth=1;fillColor=none;align=left;verticalAlign=middle;spacingTop=-1;spacingLeft=3;spacingRight=3;rotatable=0;labelPosition=right;points=[];portConstraint=eastwest;strokeColor=inherit;" parent="TeqrsGrh8CQe0pCmq5D--24" vertex="1">
          <mxGeometry y="78" width="320" height="8" as="geometry" />
        </mxCell>
        <mxCell id="TeqrsGrh8CQe0pCmq5D--27" value="XMLElement FromFile(string filepath)" style="text;strokeColor=none;fillColor=none;align=left;verticalAlign=top;spacingLeft=4;spacingRight=4;overflow=hidden;rotatable=0;points=[[0,0.5],[1,0.5]];portConstraint=eastwest;whiteSpace=wrap;html=1;" parent="TeqrsGrh8CQe0pCmq5D--24" vertex="1">
          <mxGeometry y="86" width="320" height="26" as="geometry" />
        </mxCell>
        <mxCell id="TeqrsGrh8CQe0pCmq5D--30" value="XMLElement&amp;nbsp;FromRawString(string rawXml)&lt;span style=&quot;white-space: pre;&quot;&gt;&#x9;&lt;/span&gt;" style="text;strokeColor=none;fillColor=none;align=left;verticalAlign=top;spacingLeft=4;spacingRight=4;overflow=hidden;rotatable=0;points=[[0,0.5],[1,0.5]];portConstraint=eastwest;whiteSpace=wrap;html=1;" parent="TeqrsGrh8CQe0pCmq5D--24" vertex="1">
          <mxGeometry y="112" width="320" height="26" as="geometry" />
        </mxCell>
        <mxCell id="1EoRE5-GvBEjTyv5QOHX-1" value="XMLElement" style="swimlane;fontStyle=0;childLayout=stackLayout;horizontal=1;startSize=26;fillColor=none;horizontalStack=0;resizeParent=1;resizeParentMax=0;resizeLast=0;collapsible=1;marginBottom=0;whiteSpace=wrap;html=1;" parent="1" vertex="1">
          <mxGeometry x="540" y="120" width="140" height="130" as="geometry" />
        </mxCell>
        <mxCell id="1EoRE5-GvBEjTyv5QOHX-2" value="name: string" style="text;strokeColor=none;fillColor=none;align=left;verticalAlign=top;spacingLeft=4;spacingRight=4;overflow=hidden;rotatable=0;points=[[0,0.5],[1,0.5]];portConstraint=eastwest;whiteSpace=wrap;html=1;" parent="1EoRE5-GvBEjTyv5QOHX-1" vertex="1">
          <mxGeometry y="26" width="140" height="26" as="geometry" />
        </mxCell>
        <mxCell id="1EoRE5-GvBEjTyv5QOHX-3" value="attributes: XmlAttribute[]" style="text;strokeColor=none;fillColor=none;align=left;verticalAlign=top;spacingLeft=4;spacingRight=4;overflow=hidden;rotatable=0;points=[[0,0.5],[1,0.5]];portConstraint=eastwest;whiteSpace=wrap;html=1;" parent="1EoRE5-GvBEjTyv5QOHX-1" vertex="1">
          <mxGeometry y="52" width="140" height="26" as="geometry" />
        </mxCell>
        <mxCell id="1EoRE5-GvBEjTyv5QOHX-4" value="value: string" style="text;strokeColor=none;fillColor=none;align=left;verticalAlign=top;spacingLeft=4;spacingRight=4;overflow=hidden;rotatable=0;points=[[0,0.5],[1,0.5]];portConstraint=eastwest;whiteSpace=wrap;html=1;" parent="1EoRE5-GvBEjTyv5QOHX-1" vertex="1">
          <mxGeometry y="78" width="140" height="26" as="geometry" />
        </mxCell>
        <mxCell id="EAJoTBJoHxpfbBC-fEO_-1" value="children: XMLElement[]" style="text;strokeColor=none;fillColor=none;align=left;verticalAlign=top;spacingLeft=4;spacingRight=4;overflow=hidden;rotatable=0;points=[[0,0.5],[1,0.5]];portConstraint=eastwest;whiteSpace=wrap;html=1;" parent="1EoRE5-GvBEjTyv5QOHX-1" vertex="1">
          <mxGeometry y="104" width="140" height="26" as="geometry" />
        </mxCell>
        <mxCell id="2lf6Tuu8_X6m-MojPXU--1" value="XmlAttribute" style="swimlane;fontStyle=0;childLayout=stackLayout;horizontal=1;startSize=26;fillColor=none;horizontalStack=0;resizeParent=1;resizeParentMax=0;resizeLast=0;collapsible=1;marginBottom=0;whiteSpace=wrap;html=1;" parent="1" vertex="1">
          <mxGeometry x="310" y="130" width="140" height="78" as="geometry" />
        </mxCell>
        <mxCell id="2lf6Tuu8_X6m-MojPXU--2" value="name: string" style="text;strokeColor=none;fillColor=none;align=left;verticalAlign=top;spacingLeft=4;spacingRight=4;overflow=hidden;rotatable=0;points=[[0,0.5],[1,0.5]];portConstraint=eastwest;whiteSpace=wrap;html=1;" parent="2lf6Tuu8_X6m-MojPXU--1" vertex="1">
          <mxGeometry y="26" width="140" height="26" as="geometry" />
        </mxCell>
        <mxCell id="2lf6Tuu8_X6m-MojPXU--3" value="value: string" style="text;strokeColor=none;fillColor=none;align=left;verticalAlign=top;spacingLeft=4;spacingRight=4;overflow=hidden;rotatable=0;points=[[0,0.5],[1,0.5]];portConstraint=eastwest;whiteSpace=wrap;html=1;" parent="2lf6Tuu8_X6m-MojPXU--1" vertex="1">
          <mxGeometry y="52" width="140" height="26" as="geometry" />
        </mxCell>
        <mxCell id="2lf6Tuu8_X6m-MojPXU--6" style="edgeStyle=orthogonalEdgeStyle;rounded=0;orthogonalLoop=1;jettySize=auto;html=1;exitX=0;exitY=0.5;exitDx=0;exitDy=0;entryX=0.5;entryY=0;entryDx=0;entryDy=0;" parent="1" source="1EoRE5-GvBEjTyv5QOHX-3" target="2lf6Tuu8_X6m-MojPXU--1" edge="1">
          <mxGeometry relative="1" as="geometry" />
        </mxCell>
        <mxCell id="2lf6Tuu8_X6m-MojPXU--7" value="Сначала парсим значение через парсер, затем конвертируем в Rate" style="text;html=1;align=center;verticalAlign=middle;whiteSpace=wrap;rounded=0;" parent="1" vertex="1">
          <mxGeometry x="220" y="490" width="320" height="80" as="geometry" />
        </mxCell>
        <mxCell id="r4_xDyhWUQYCbaaaQASA-3" style="edgeStyle=orthogonalEdgeStyle;rounded=0;orthogonalLoop=1;jettySize=auto;html=1;exitX=0.5;exitY=1;exitDx=0;exitDy=0;entryX=0.5;entryY=0;entryDx=0;entryDy=0;" edge="1" parent="1" source="r4_xDyhWUQYCbaaaQASA-1" target="r4_xDyhWUQYCbaaaQASA-2">
          <mxGeometry relative="1" as="geometry" />
        </mxCell>
        <mxCell id="r4_xDyhWUQYCbaaaQASA-1" value="Считывание тега в элемент" style="rounded=0;whiteSpace=wrap;html=1;" vertex="1" parent="1">
          <mxGeometry x="1220" y="10" width="120" height="60" as="geometry" />
        </mxCell>
        <mxCell id="r4_xDyhWUQYCbaaaQASA-7" style="edgeStyle=orthogonalEdgeStyle;rounded=0;orthogonalLoop=1;jettySize=auto;html=1;exitX=0.5;exitY=1;exitDx=0;exitDy=0;entryX=0.5;entryY=0;entryDx=0;entryDy=0;" edge="1" parent="1" source="r4_xDyhWUQYCbaaaQASA-2" target="r4_xDyhWUQYCbaaaQASA-5">
          <mxGeometry relative="1" as="geometry" />
        </mxCell>
        <mxCell id="r4_xDyhWUQYCbaaaQASA-2" value="Запись элемента в стек" style="rounded=0;whiteSpace=wrap;html=1;" vertex="1" parent="1">
          <mxGeometry x="1220" y="105" width="120" height="60" as="geometry" />
        </mxCell>
        <mxCell id="r4_xDyhWUQYCbaaaQASA-10" value="" style="edgeStyle=orthogonalEdgeStyle;rounded=0;orthogonalLoop=1;jettySize=auto;html=1;" edge="1" parent="1" source="r4_xDyhWUQYCbaaaQASA-5" target="r4_xDyhWUQYCbaaaQASA-9">
          <mxGeometry relative="1" as="geometry" />
        </mxCell>
        <mxCell id="r4_xDyhWUQYCbaaaQASA-55" value="Не пустой" style="edgeLabel;html=1;align=center;verticalAlign=middle;resizable=0;points=[];" vertex="1" connectable="0" parent="r4_xDyhWUQYCbaaaQASA-10">
          <mxGeometry x="-0.6601" y="-1" relative="1" as="geometry">
            <mxPoint as="offset" />
          </mxGeometry>
        </mxCell>
        <mxCell id="r4_xDyhWUQYCbaaaQASA-5" value="Пока стек не пустой" style="rhombus;whiteSpace=wrap;html=1;" vertex="1" parent="1">
          <mxGeometry x="1185" y="180" width="190" height="80" as="geometry" />
        </mxCell>
        <mxCell id="r4_xDyhWUQYCbaaaQASA-15" value="" style="edgeStyle=orthogonalEdgeStyle;rounded=0;orthogonalLoop=1;jettySize=auto;html=1;" edge="1" parent="1" source="r4_xDyhWUQYCbaaaQASA-9" target="r4_xDyhWUQYCbaaaQASA-14">
          <mxGeometry relative="1" as="geometry" />
        </mxCell>
        <mxCell id="r4_xDyhWUQYCbaaaQASA-9" value="считывание данных" style="rounded=0;whiteSpace=wrap;html=1;" vertex="1" parent="1">
          <mxGeometry x="1195" y="280" width="170" height="60" as="geometry" />
        </mxCell>
        <mxCell id="r4_xDyhWUQYCbaaaQASA-16" style="edgeStyle=orthogonalEdgeStyle;rounded=0;orthogonalLoop=1;jettySize=auto;html=1;exitX=0.5;exitY=1;exitDx=0;exitDy=0;" edge="1" parent="1" source="r4_xDyhWUQYCbaaaQASA-14" target="r4_xDyhWUQYCbaaaQASA-17">
          <mxGeometry relative="1" as="geometry">
            <mxPoint x="1160" y="530" as="targetPoint" />
          </mxGeometry>
        </mxCell>
        <mxCell id="r4_xDyhWUQYCbaaaQASA-20" style="edgeStyle=orthogonalEdgeStyle;rounded=0;orthogonalLoop=1;jettySize=auto;html=1;exitX=0.5;exitY=1;exitDx=0;exitDy=0;entryX=0.5;entryY=0;entryDx=0;entryDy=0;" edge="1" parent="1" source="r4_xDyhWUQYCbaaaQASA-14" target="r4_xDyhWUQYCbaaaQASA-18">
          <mxGeometry relative="1" as="geometry" />
        </mxCell>
        <mxCell id="r4_xDyhWUQYCbaaaQASA-14" value="Что считалось?" style="rhombus;whiteSpace=wrap;html=1;rounded=0;" vertex="1" parent="1">
          <mxGeometry x="1195" y="360" width="170" height="70" as="geometry" />
        </mxCell>
        <mxCell id="r4_xDyhWUQYCbaaaQASA-41" style="edgeStyle=orthogonalEdgeStyle;rounded=0;orthogonalLoop=1;jettySize=auto;html=1;exitX=0.5;exitY=1;exitDx=0;exitDy=0;entryX=0.5;entryY=0;entryDx=0;entryDy=0;" edge="1" parent="1" source="r4_xDyhWUQYCbaaaQASA-17" target="r4_xDyhWUQYCbaaaQASA-25">
          <mxGeometry relative="1" as="geometry" />
        </mxCell>
        <mxCell id="r4_xDyhWUQYCbaaaQASA-17" value="Элемент" style="whiteSpace=wrap;html=1;" vertex="1" parent="1">
          <mxGeometry x="1110" y="470" width="120" height="60" as="geometry" />
        </mxCell>
        <mxCell id="r4_xDyhWUQYCbaaaQASA-21" style="edgeStyle=orthogonalEdgeStyle;rounded=0;orthogonalLoop=1;jettySize=auto;html=1;exitX=0.5;exitY=1;exitDx=0;exitDy=0;entryX=0.5;entryY=0;entryDx=0;entryDy=0;" edge="1" parent="1" source="r4_xDyhWUQYCbaaaQASA-18" target="r4_xDyhWUQYCbaaaQASA-22">
          <mxGeometry relative="1" as="geometry">
            <mxPoint x="1280" y="630" as="targetPoint" />
          </mxGeometry>
        </mxCell>
        <mxCell id="r4_xDyhWUQYCbaaaQASA-18" value="Простые данные" style="whiteSpace=wrap;html=1;" vertex="1" parent="1">
          <mxGeometry x="1350" y="470" width="120" height="60" as="geometry" />
        </mxCell>
        <mxCell id="r4_xDyhWUQYCbaaaQASA-24" style="edgeStyle=orthogonalEdgeStyle;rounded=0;orthogonalLoop=1;jettySize=auto;html=1;exitX=0.5;exitY=1;exitDx=0;exitDy=0;entryX=1;entryY=0.5;entryDx=0;entryDy=0;" edge="1" parent="1" source="r4_xDyhWUQYCbaaaQASA-22" target="r4_xDyhWUQYCbaaaQASA-5">
          <mxGeometry relative="1" as="geometry">
            <Array as="points">
              <mxPoint x="1410" y="620" />
              <mxPoint x="1600" y="620" />
              <mxPoint x="1600" y="220" />
            </Array>
          </mxGeometry>
        </mxCell>
        <mxCell id="r4_xDyhWUQYCbaaaQASA-22" value="Записать в данные верхнего элемента в стеке" style="whiteSpace=wrap;html=1;" vertex="1" parent="1">
          <mxGeometry x="1350" y="550" width="120" height="60" as="geometry" />
        </mxCell>
        <mxCell id="r4_xDyhWUQYCbaaaQASA-29" style="edgeStyle=orthogonalEdgeStyle;rounded=0;orthogonalLoop=1;jettySize=auto;html=1;exitX=0.5;exitY=1;exitDx=0;exitDy=0;entryX=0.5;entryY=0;entryDx=0;entryDy=0;" edge="1" parent="1" source="r4_xDyhWUQYCbaaaQASA-25" target="r4_xDyhWUQYCbaaaQASA-31">
          <mxGeometry relative="1" as="geometry">
            <mxPoint x="1090" y="660" as="targetPoint" />
          </mxGeometry>
        </mxCell>
        <mxCell id="r4_xDyhWUQYCbaaaQASA-51" value="Открывающийся" style="edgeLabel;html=1;align=center;verticalAlign=middle;resizable=0;points=[];" vertex="1" connectable="0" parent="r4_xDyhWUQYCbaaaQASA-29">
          <mxGeometry x="0.0839" y="1" relative="1" as="geometry">
            <mxPoint as="offset" />
          </mxGeometry>
        </mxCell>
        <mxCell id="r4_xDyhWUQYCbaaaQASA-35" style="edgeStyle=orthogonalEdgeStyle;rounded=0;orthogonalLoop=1;jettySize=auto;html=1;entryX=0.5;entryY=0;entryDx=0;entryDy=0;" edge="1" parent="1" source="r4_xDyhWUQYCbaaaQASA-25" target="r4_xDyhWUQYCbaaaQASA-37">
          <mxGeometry relative="1" as="geometry">
            <mxPoint x="1250" y="660" as="targetPoint" />
          </mxGeometry>
        </mxCell>
        <mxCell id="r4_xDyhWUQYCbaaaQASA-54" value="Закрывающийся" style="edgeLabel;html=1;align=center;verticalAlign=middle;resizable=0;points=[];" vertex="1" connectable="0" parent="r4_xDyhWUQYCbaaaQASA-35">
          <mxGeometry x="-0.0998" y="-3" relative="1" as="geometry">
            <mxPoint as="offset" />
          </mxGeometry>
        </mxCell>
        <mxCell id="r4_xDyhWUQYCbaaaQASA-25" value="Какой элемент?" style="rhombus;whiteSpace=wrap;html=1;rounded=0;" vertex="1" parent="1">
          <mxGeometry x="1057.5" y="545" width="225" height="70" as="geometry" />
        </mxCell>
        <mxCell id="r4_xDyhWUQYCbaaaQASA-33" style="edgeStyle=orthogonalEdgeStyle;rounded=0;orthogonalLoop=1;jettySize=auto;html=1;exitX=0.5;exitY=1;exitDx=0;exitDy=0;entryX=0;entryY=0.5;entryDx=0;entryDy=0;" edge="1" parent="1" source="r4_xDyhWUQYCbaaaQASA-31" target="r4_xDyhWUQYCbaaaQASA-5">
          <mxGeometry relative="1" as="geometry">
            <Array as="points">
              <mxPoint x="1090" y="820" />
              <mxPoint x="990" y="820" />
              <mxPoint x="990" y="220" />
            </Array>
          </mxGeometry>
        </mxCell>
        <mxCell id="r4_xDyhWUQYCbaaaQASA-31" value="Запушить его в стек" style="whiteSpace=wrap;html=1;" vertex="1" parent="1">
          <mxGeometry x="1030" y="740" width="120" height="60" as="geometry" />
        </mxCell>
        <mxCell id="r4_xDyhWUQYCbaaaQASA-39" style="edgeStyle=orthogonalEdgeStyle;rounded=0;orthogonalLoop=1;jettySize=auto;html=1;exitX=0.5;exitY=1;exitDx=0;exitDy=0;entryX=0.5;entryY=0;entryDx=0;entryDy=0;" edge="1" parent="1" source="r4_xDyhWUQYCbaaaQASA-37" target="r4_xDyhWUQYCbaaaQASA-43">
          <mxGeometry relative="1" as="geometry">
            <mxPoint x="1190" y="890" as="targetPoint" />
          </mxGeometry>
        </mxCell>
        <mxCell id="r4_xDyhWUQYCbaaaQASA-40" value="Да" style="edgeLabel;html=1;align=center;verticalAlign=middle;resizable=0;points=[];" vertex="1" connectable="0" parent="r4_xDyhWUQYCbaaaQASA-39">
          <mxGeometry x="0.1631" y="-3" relative="1" as="geometry">
            <mxPoint as="offset" />
          </mxGeometry>
        </mxCell>
        <mxCell id="r4_xDyhWUQYCbaaaQASA-46" style="edgeStyle=orthogonalEdgeStyle;rounded=0;orthogonalLoop=1;jettySize=auto;html=1;exitX=0.5;exitY=1;exitDx=0;exitDy=0;entryX=0.5;entryY=0;entryDx=0;entryDy=0;" edge="1" parent="1" source="r4_xDyhWUQYCbaaaQASA-37" target="r4_xDyhWUQYCbaaaQASA-45">
          <mxGeometry relative="1" as="geometry" />
        </mxCell>
        <mxCell id="r4_xDyhWUQYCbaaaQASA-47" value="Нет" style="edgeLabel;html=1;align=center;verticalAlign=middle;resizable=0;points=[];" vertex="1" connectable="0" parent="r4_xDyhWUQYCbaaaQASA-46">
          <mxGeometry x="0.1841" y="-2" relative="1" as="geometry">
            <mxPoint x="-1" as="offset" />
          </mxGeometry>
        </mxCell>
        <mxCell id="r4_xDyhWUQYCbaaaQASA-37" value="Закрывающийся элемент &lt;br&gt;совпадает с верхним в стеке?" style="rhombus;whiteSpace=wrap;html=1;" vertex="1" parent="1">
          <mxGeometry x="1185" y="740" width="270" height="90" as="geometry" />
        </mxCell>
        <mxCell id="r4_xDyhWUQYCbaaaQASA-44" style="edgeStyle=orthogonalEdgeStyle;rounded=0;orthogonalLoop=1;jettySize=auto;html=1;exitX=0.5;exitY=1;exitDx=0;exitDy=0;entryX=0;entryY=0.5;entryDx=0;entryDy=0;" edge="1" parent="1" source="r4_xDyhWUQYCbaaaQASA-43" target="r4_xDyhWUQYCbaaaQASA-5">
          <mxGeometry relative="1" as="geometry">
            <Array as="points">
              <mxPoint x="1200" y="970" />
              <mxPoint x="990" y="970" />
              <mxPoint x="990" y="220" />
            </Array>
          </mxGeometry>
        </mxCell>
        <mxCell id="r4_xDyhWUQYCbaaaQASA-43" value="Вытащить верхний элемент из стека" style="whiteSpace=wrap;html=1;" vertex="1" parent="1">
          <mxGeometry x="1140" y="890" width="120" height="60" as="geometry" />
        </mxCell>
        <mxCell id="r4_xDyhWUQYCbaaaQASA-45" value="Выкинуть исключение" style="whiteSpace=wrap;html=1;" vertex="1" parent="1">
          <mxGeometry x="1365" y="890" width="120" height="60" as="geometry" />
        </mxCell>
      </root>
    </mxGraphModel>
  </diagram>
</mxfile>
